General                          : ChattChitto RG - Movies [R2L]
==========
Complete name                    : No Strings Attached 2011 720p BRRip H264 [ChattChitto RG]
Format                           : MPEG-4
Format profile                   : Base Media
Codec ID                         : isom
File size                        : 2.08 GiB
Duration                         : 1h 47mn
Overall bit rate                 : 2 752 Kbps
Encoded date                     : UTC 2011-04-25 21:09:21

Video
==========
ID                               : 1
Format                           : AVC
Format/Info                      : Advanced Video Codec
Format profile                   : High@L4.1
Format settings, CABAC           : Yes
Format settings, ReFrames        : 4 frames
Codec ID                         : avc1
Codec ID/Info                    : Advanced Video Coding
Duration                         : 1h 47mn
Bit rate mode                    : Variable
Bit rate                         : 2 400 Kbps
Maximum bit rate                 : 13.6 Mbps
Width                            : 1 280 pixels
Height                           : 528 pixels
Display aspect ratio             : 2.40:1
Frame rate mode                  : Constant
Frame rate                       : 23.976 fps
Color space                      : YUV
Chroma subsampling               : 4:2:0
Bit depth                        : 8 bits
Scan type                        : Progressive
Bits/(Pixel*Frame)               : 0.148
Stream size                      : 1.81 GiB (87%)
Writing library                  : x264 core 114 r1924 08d04a4
Encoded date                     : UTC 2011-04-25 06:00:15

Audio
==========
ID                               : 2
Format                           : AAC
Format/Info                      : Advanced Audio Codec
Format profile                   : LC
Codec ID                         : 40
Duration                         : 1h 47mn
Bit rate mode                    : Variable
Bit rate                         : 352.8 Kbps
Maximum bit rate                 : 460 Kbps
Channel(s)                       : 6 channels
Channel positions                : Front: L C R, Side: L R, LFE
Sampling rate                    : 48.0 KHz
Compression mode                 : Lossy
Stream size                      : 270 MiB (13%)
Encoded date                     : UTC 2011-04-25 21:09:49

Subtitles                        : English | Spanish


----------------------------------------------------
IMDB Link: http://www.imdb.com/title/tt1411238/
----------------------------------------------------



Screen Shots:
==============    
http://chattchitto.net/chattchittorg/movies/brrip/2011/no_strings_attached/1.png 
http://chattchitto.net/chattchittorg/movies/brrip/2011/no_strings_attached/2.png 
http://chattchitto.net/chattchittorg/movies/brrip/2011/no_strings_attached/3.png 
http://chattchitto.net/chattchittorg/movies/brrip/2011/no_strings_attached/4.png 
http://chattchitto.net/chattchittorg/movies/brrip/2011/no_strings_attached/5.png 
http://chattchitto.net/chattchittorg/movies/brrip/2011/no_strings_attached/6.png 
http://chattchitto.net/chattchittorg/movies/brrip/2011/no_strings_attached/7.png



ScreenShots Comparison:
=========================  
http://screenshotcomparison.com/comparison/46875



Plot:
======
A guy and girl try to keep their relationship strictly physical, but it's not long before they learn that they want something more.



Release Info:
==============
original name .... : No Strings Attached 2011 720p BRRip H264 [ChattChitto RG]
ripper.............: AMIABLE
encoder............: Recalled2Life (R2L)
video codec........: H264/.MP4
video bitrate......: 2400
audio codec........: AAC-LC
aspect ratio.......: 2.40:1
resolution.........: 1280 x 528
genre..............: Comedy | Romance
runtime............: 1h 47mn
language...........: English
rating.............: R
subtitles..........: English | Spanish
sample.............: Yes
2ch Audio..........: 2ch Audio for XBox Viewers
Compatibility .....: XBox | PS3 | WD Live



Source:
========
No.Strings.Attached.2011.720p.BluRay.X264-AMIABLE  THANKS!



Notes:
=======
ChattChitto RG Encourages Burning this Film with ConvertXtoDVD and Playing with VLC media player.
XBox 360 | PS3 | WD Live - Compatible 
Enhanced for your viewing pleasure ;)